<?xml version="1.0" encoding="UTF-8" ?>
<!DOCTYPE svg PUBLIC "-//W3C//DTD SVG 1.1//EN" "http://www.w3.org/Graphics/SVG/1.1/DTD/svg11.dtd">
<svg height="86px" width="86px" viewBox="0 0 680 680" version="1.1" xmlns="http://www.w3.org/2000/svg">
	<path fill="#ca4d4d" stroke="#b40d0e" stroke-width="0.09375" opacity="1.00" d=" M 51.4 13.6 C 69.7 12.1 85.7 22.7 101.3 30.8 C 228.4 94.9 355.3 159.4 482.3 223.7 C 535.9 250.8 589.4 278.1 643.1 304.9 C 650.8 309.1 658.2 314.4 663.4 321.6 C 668.8 328.4 669.6 338.2 666.4 346.1 C 664.4 351.7 660.0 355.9 655.6 359.6 C 646.0 367.5 634.6 372.4 623.5 377.7 C 446.9 467.4 270.0 556.7 93.4 646.4 C 80.7 652.8 67.6 660.4 53.0 659.8 C 36.6 659.3 21.3 645.6 20.5 628.9 C 20.5 579.1 20.5 529.2 20.6 479.3 C 91.1 444.6 160.9 408.3 231.3 373.1 C 242.8 367.0 255.6 361.0 262.2 349.2 C 266.6 342.1 266.3 332.8 262.6 325.4 C 257.8 316.0 249.1 309.0 239.7 304.3 C 166.3 267.9 93.8 229.9 20.5 193.2 C 20.6 143.5 20.5 93.7 20.6 44.0 C 21.3 28.0 35.4 14.2 51.4 13.6 Z" />
</svg>
