<?xml version="1.0" encoding="UTF-8" ?>
<!DOCTYPE svg PUBLIC "-//W3C//DTD SVG 1.1//EN" "http://www.w3.org/Graphics/SVG/1.1/DTD/svg11.dtd">
<svg width="680pt" height="680pt" viewBox="0 0 680 680" version="1.1" xmlns="http://www.w3.org/2000/svg">
<path fill="#b40d0e" stroke="#b40d0e" stroke-width="0.09375" opacity="1.00" d=" M 321.4 50.9 C 388.8 47.0 458.2 64.2 514.0 102.9 C 542.6 122.6 567.4 147.8 585.6 177.4 C 601.5 202.8 612.2 231.4 617.1 260.9 C 618.5 266.5 618.7 272.2 619.3 277.9 C 619.9 289.3 620.9 300.7 619.7 312.0 C 616.3 371.8 588.6 428.6 547.6 471.6 C 546.4 473.1 544.3 474.6 545.2 476.8 C 550.0 514.8 555.1 552.8 560.1 590.7 C 560.9 595.4 561.5 600.1 561.7 604.8 C 517.5 586.6 473.0 569.0 428.8 550.9 C 426.7 549.8 424.7 551.3 422.7 551.9 C 359.6 574.3 289.6 577.6 224.9 559.6 C 196.4 551.7 169.0 539.7 144.1 523.6 C 137.9 520.1 133.0 514.8 126.9 511.1 C 77.9 475.2 43.2 420.0 33.6 359.9 C 28.6 328.5 30.1 296.0 38.2 265.2 C 53.3 205.3 91.9 152.8 140.9 116.0 C 175.3 90.1 214.9 71.5 256.6 60.9 C 263.5 58.4 270.9 57.7 278.0 56.2 C 292.2 53.0 306.8 52.0 321.4 50.9 Z" />
</svg>
