<?xml version="1.0" encoding="UTF-8" ?>
<!DOCTYPE svg PUBLIC "-//W3C//DTD SVG 1.1//EN" "http://www.w3.org/Graphics/SVG/1.1/DTD/svg11.dtd">
<svg width="750pt" height="750pt" viewBox="0 0 750 750" version="1.1" xmlns="http://www.w3.org/2000/svg">
<path fill="#b40d0e" stroke="#b40d0e" stroke-width="0.09375" opacity="1.00" d=" M 239.4 45.4 C 261.2 26.8 290.5 17.3 319.0 20.0 C 342.4 22.0 364.9 32.0 382.3 47.7 C 403.1 66.3 416.5 93.1 418.3 121.0 C 420.1 145.8 413.2 171.3 398.4 191.4 C 391.4 200.8 386.7 211.8 378.5 220.3 C 386.6 220.4 394.6 220.4 402.6 220.4 C 398.8 230.7 395.7 241.2 392.4 251.6 C 401.5 251.5 411.5 251.1 419.4 256.6 C 432.0 264.3 437.4 281.7 431.2 295.3 C 426.8 305.7 416.3 313.2 405.0 313.8 C 396.6 314.4 388.2 314.0 379.8 314.1 C 378.4 324.7 377.5 335.3 376.5 346.0 C 376.0 352.3 377.2 358.7 375.9 365.0 C 375.6 367.7 375.8 370.3 376.2 373.0 C 377.0 379.4 375.2 385.7 376.2 392.0 C 376.3 409.2 379.9 426.0 382.7 442.9 C 383.7 448.5 384.3 454.3 385.7 459.9 C 389.9 478.8 393.4 497.8 398.7 516.4 C 408.1 518.6 417.7 520.1 427.2 521.9 C 434.3 523.2 438.3 530.1 440.3 536.4 C 443.1 546.1 445.6 556.2 451.2 564.7 C 460.2 578.2 476.4 584.1 487.4 595.6 C 498.3 605.7 504.6 621.0 502.4 635.9 C 501.7 642.4 498.8 648.3 496.1 654.2 C 503.2 661.4 509.5 669.3 516.9 676.2 C 521.4 680.6 527.2 683.9 530.5 689.5 C 539.0 702.2 535.1 720.9 523.1 730.1 C 516.6 735.3 508.1 737.0 500.0 737.0 C 379.3 737.0 258.7 737.0 138.0 737.0 C 128.2 736.8 118.3 737.6 108.6 736.2 C 95.2 734.2 84.0 722.5 82.6 709.1 C 81.1 699.3 85.4 689.2 92.5 682.4 C 96.5 678.7 101.9 676.8 105.6 672.7 C 110.6 667.3 115.6 662.0 120.5 656.5 C 114.4 647.9 111.5 637.4 110.1 627.0 C 109.9 624.4 109.2 621.7 109.8 619.0 C 111.7 610.7 115.1 602.4 121.3 596.3 C 134.5 584.0 151.3 575.8 162.8 561.7 C 171.8 550.8 170.5 534.7 180.4 524.4 C 190.5 514.7 207.6 522.7 217.2 512.2 C 227.7 477.3 235.6 441.4 239.6 405.1 C 241.4 387.8 242.4 370.4 241.9 353.0 C 240.8 340.1 243.1 327.1 240.3 314.4 C 228.1 313.0 215.3 316.2 203.6 311.4 C 189.6 305.9 181.6 289.1 185.8 274.8 C 188.3 265.5 195.2 257.6 204.1 254.0 C 211.0 251.1 218.7 251.5 226.0 251.7 C 222.5 241.2 219.7 230.6 215.6 220.3 C 223.7 220.5 231.8 220.4 239.9 220.5 C 234.6 214.2 229.6 207.5 225.9 200.1 C 223.5 195.1 220.2 190.6 217.1 185.9 C 202.8 163.3 197.1 135.2 202.3 108.8 C 206.7 84.2 220.3 61.5 239.4 45.4 Z" />
<path fill="#b40d0e" stroke="#b40d0e" stroke-width="0.09375" opacity="1.00" d=" M 520.0 109.9 C 540.8 103.3 564.1 104.9 583.9 114.2 C 597.1 120.3 608.8 129.7 617.7 141.3 C 629.7 156.8 636.4 176.4 636.2 196.0 C 636.3 214.6 630.3 233.2 619.2 248.2 C 613.6 255.7 609.8 264.5 603.3 271.3 C 609.9 271.3 616.5 271.3 623.1 271.3 C 620.0 279.7 617.5 288.4 614.7 297.0 C 620.6 297.0 626.7 296.7 632.3 298.7 C 642.2 302.3 648.9 312.5 648.8 323.0 C 648.9 334.8 639.8 345.8 628.2 347.8 C 620.2 348.9 612.2 348.3 604.3 348.5 C 603.3 357.3 602.3 366.1 601.7 375.0 C 601.5 387.5 601.0 400.0 601.3 412.5 C 601.6 430.3 605.8 447.6 608.4 465.1 C 612.3 481.8 615.1 498.7 620.0 515.1 C 627.9 516.9 635.9 518.1 643.8 519.6 C 649.7 521.0 652.8 527.0 654.4 532.3 C 657.0 541.9 659.8 551.9 666.7 559.3 C 674.6 567.6 685.4 572.3 693.4 580.6 C 702.2 589.0 707.2 601.7 705.3 613.9 C 704.6 619.1 702.2 623.9 700.1 628.6 C 706.0 634.4 711.2 641.0 717.3 646.7 C 721.2 650.5 726.1 653.3 728.8 658.2 C 735.2 668.5 732.2 683.2 722.7 690.7 C 717.5 695.1 710.7 696.7 704.1 696.7 C 657.2 696.8 610.3 696.7 563.3 696.8 C 561.2 691.1 557.9 685.7 553.0 682.0 C 542.6 673.9 534.5 663.5 525.5 654.1 C 528.6 647.1 532.1 639.9 532.0 632.0 C 532.8 618.5 526.8 605.1 517.1 595.9 C 507.5 585.8 494.5 580.0 484.8 570.1 C 476.9 561.7 473.4 550.3 470.4 539.4 C 468.8 532.6 465.4 525.4 458.8 522.3 C 453.8 520.7 448.5 520.4 443.4 519.2 C 450.5 515.9 458.7 517.8 465.9 514.9 C 468.0 513.8 470.6 512.6 471.1 510.0 C 482.4 470.3 490.7 429.4 490.9 388.0 C 491.1 382.0 490.3 376.0 490.5 370.0 C 490.7 362.9 491.0 355.7 489.4 348.7 C 479.5 347.6 469.1 350.2 459.6 346.4 C 448.8 342.4 442.1 330.2 443.9 319.0 C 444.9 312.1 449.1 305.8 454.7 301.7 C 461.2 296.6 469.9 296.6 477.7 297.1 C 474.8 288.5 472.5 279.7 469.1 271.2 C 475.8 271.4 482.5 271.3 489.2 271.4 C 484.8 266.3 480.8 261.0 477.8 255.0 C 476.2 251.8 474.3 248.7 472.3 245.8 C 461.7 230.4 456.1 211.7 456.7 193.0 C 457.1 176.6 462.3 160.2 471.5 146.6 C 482.8 129.3 500.2 116.0 520.0 109.9 Z" />
</svg>
