<?xml version="1.0" encoding="UTF-8" ?>
<!DOCTYPE svg PUBLIC "-//W3C//DTD SVG 1.1//EN" "http://www.w3.org/Graphics/SVG/1.1/DTD/svg11.dtd">
<svg width="680pt" height="680pt" viewBox="0 0 680 680" version="1.1" xmlns="http://www.w3.org/2000/svg">
<path fill="#f9f9f9" stroke="#f9f9f9" stroke-width="0.09375" opacity="1.00" d=" M 317.7 0.0 L 337.9 0.0 C 339.6 1.2 341.7 1.4 343.7 1.8 C 352.0 3.3 360.1 6.2 367.0 11.0 C 376.6 17.9 383.9 28.4 385.9 40.1 C 387.3 46.8 390.0 53.5 388.5 60.4 C 386.8 76.6 379.1 91.3 369.4 104.1 L 369.9 104.9 C 378.4 107.7 386.4 111.7 394.4 115.8 C 416.0 126.4 435.1 142.2 449.5 161.6 C 466.4 183.9 476.4 211.1 478.7 239.0 C 479.4 254.3 479.5 269.6 479.9 285.0 C 481.0 294.6 480.3 304.4 482.1 314.0 C 482.9 333.1 485.6 352.2 488.5 371.1 C 492.6 396.5 498.1 421.6 505.8 446.2 C 512.9 468.9 521.6 491.4 533.9 512.0 C 543.7 529.1 556.4 545.1 572.8 556.3 C 579.2 560.7 586.5 563.4 593.9 565.6 C 593.8 582.7 593.9 599.8 593.9 616.9 C 529.6 617.1 465.3 617.0 401.1 617.0 C 397.2 631.8 389.3 645.6 378.1 656.1 C 360.5 673.4 334.8 681.8 310.4 678.4 C 277.5 674.9 248.8 649.0 240.9 617.0 C 182.0 617.0 123.1 617.1 64.1 616.9 C 64.1 599.8 64.2 582.6 64.1 565.5 C 73.8 562.8 83.3 558.6 91.0 551.9 C 111.2 536.1 124.5 513.3 135.5 490.4 C 145.3 469.0 152.7 446.4 158.7 423.6 C 169.7 379.8 175.8 334.7 177.7 289.6 C 179.3 268.1 177.4 246.3 181.1 224.9 C 187.4 187.9 208.5 153.9 238.4 131.4 C 251.2 121.4 265.8 114.3 280.7 108.5 C 282.0 108.1 283.2 107.8 284.5 107.5 L 284.3 106.4 C 284.8 106.3 285.8 106.2 286.4 106.1 C 285.7 106.0 284.4 105.7 283.7 105.5 C 283.6 102.9 281.5 101.0 280.1 99.0 C 270.3 85.8 264.0 69.5 264.3 52.9 C 264.7 42.8 266.8 32.3 272.7 23.9 C 279.9 13.1 291.9 6.6 304.2 3.6 C 308.6 2.0 313.5 2.1 317.7 0.0 M 320.6 36.8 C 315.2 37.6 309.9 40.3 307.0 45.1 C 303.3 51.2 301.5 59.0 304.0 66.0 C 305.8 72.2 311.2 76.9 317.3 78.8 C 323.8 81.6 331.3 81.2 337.9 78.9 C 344.1 76.7 347.9 70.5 348.8 64.2 C 349.6 56.7 349.6 47.9 344.1 41.9 C 337.9 36.1 328.5 35.5 320.6 36.8 M 311.0 174.8 C 311.0 187.9 311.0 200.9 311.0 214.0 C 300.7 214.0 290.3 214.0 280.0 214.0 C 280.0 225.0 280.0 236.0 280.0 247.0 C 290.3 247.0 300.7 247.0 311.0 247.0 C 311.0 260.7 311.0 274.3 311.0 288.0 C 321.3 288.0 331.7 288.0 342.0 288.0 C 342.0 274.3 342.0 260.7 342.0 247.0 C 352.3 247.0 362.7 247.0 373.0 247.0 C 373.0 236.0 373.0 225.0 373.0 214.0 C 362.7 214.0 352.3 214.0 342.0 214.0 C 342.0 200.9 342.0 187.9 342.0 174.8 C 340.4 176.5 338.0 175.9 336.0 176.0 C 328.7 176.0 321.3 176.0 314.0 176.0 C 312.9 176.1 311.8 175.7 311.0 174.8 M 261.4 334.0 C 259.7 336.6 255.4 333.5 253.6 335.9 C 252.3 336.2 250.4 335.4 249.6 336.9 C 247.4 336.7 245.5 337.5 243.6 338.7 C 241.5 339.6 239.6 341.4 238.7 343.6 C 237.5 345.8 237.5 349.2 238.7 351.4 C 239.1 352.9 240.1 354.1 241.8 354.2 C 242.1 354.6 242.9 355.5 243.3 355.9 C 244.6 355.7 245.6 356.1 246.4 356.9 C 246.9 357.0 248.1 357.0 248.6 357.1 C 250.1 359.4 254.0 356.5 255.4 359.0 C 259.5 359.1 263.5 358.9 267.6 359.0 L 268.3 359.9 C 273.1 360.2 277.9 359.9 282.6 360.0 C 283.4 361.7 285.6 360.7 287.0 361.0 C 314.9 360.9 342.8 361.2 370.7 360.9 L 371.4 360.0 C 376.1 359.9 380.9 360.1 385.6 360.0 L 386.3 359.1 C 390.1 358.8 393.9 359.1 397.6 359.0 C 399.3 356.5 403.4 359.4 405.4 357.2 C 406.9 357.0 408.3 356.5 409.7 355.7 C 411.6 354.8 413.7 353.6 414.3 351.4 C 415.5 349.2 415.5 345.8 414.3 343.6 C 413.9 342.1 412.9 341.0 411.3 340.8 C 410.4 339.9 409.6 339.0 408.4 338.7 C 406.5 336.8 403.5 337.6 401.6 336.1 C 400.3 335.8 398.3 336.6 397.6 335.0 C 395.2 335.0 392.8 335.0 390.4 335.0 C 390.0 334.7 389.3 334.3 389.0 334.0 C 346.5 334.0 303.9 334.0 261.4 334.0 M 269.3 389.1 L 268.6 390.0 C 265.5 390.0 262.5 390.0 259.4 390.0 C 258.1 391.9 255.3 390.6 253.4 391.0 C 252.5 393.0 249.7 391.1 248.6 392.8 C 247.1 392.9 245.7 393.5 244.3 394.3 C 241.8 395.3 240.1 397.6 238.0 399.3 C 238.0 401.4 238.0 403.6 238.0 405.7 C 239.1 406.5 240.1 407.4 240.2 408.8 C 242.0 409.0 242.9 410.8 244.6 411.3 C 245.7 412.3 247.5 411.6 248.4 412.9 C 248.9 413.0 250.1 413.0 250.6 413.1 C 251.4 414.6 253.3 413.8 254.6 414.1 C 255.7 415.8 258.0 414.7 259.6 415.1 C 261.4 417.6 265.7 414.4 267.4 417.0 C 299.5 417.0 331.5 417.0 363.6 417.0 L 364.3 416.1 C 368.8 415.8 373.2 416.1 377.6 416.0 C 380.0 413.2 385.0 416.7 387.4 414.0 C 389.6 413.6 392.8 415.0 394.4 413.0 C 395.8 413.0 397.2 413.0 398.6 413.0 C 399.5 411.0 402.4 413.0 403.4 411.1 C 403.9 411.0 405.1 411.0 405.6 410.9 C 406.5 409.6 408.3 410.3 409.4 409.3 C 411.2 408.3 413.8 407.8 414.3 405.4 C 415.7 403.7 414.8 401.3 415.0 399.3 C 412.9 397.6 411.2 395.3 408.7 394.3 C 407.3 393.5 405.9 392.9 404.4 392.8 C 403.3 391.1 400.5 393.0 399.6 391.0 C 397.9 391.0 396.1 391.0 394.4 391.0 C 391.7 388.2 386.3 391.8 383.6 389.0 C 345.5 389.0 307.4 388.9 269.3 389.1 Z" />
</svg>
