<?xml version="1.0" encoding="UTF-8" ?>
<!DOCTYPE svg PUBLIC "-//W3C//DTD SVG 1.1//EN" "http://www.w3.org/Graphics/SVG/1.1/DTD/svg11.dtd">
<svg width="680pt" height="680pt" viewBox="0 0 680 680" version="1.1" xmlns="http://www.w3.org/2000/svg">
<path fill="#b40d0e" stroke="#b40d0e" stroke-width="0.09375" opacity="1.00" d=" M 317.9 0.0 L 338.0 0.0 C 342.4 2.3 347.7 2.0 352.3 3.9 C 368.1 8.5 381.7 21.4 385.3 37.7 C 386.3 43.5 388.7 49.0 388.9 55.0 C 388.5 69.4 383.3 83.4 375.4 95.4 C 373.5 98.6 370.8 101.4 369.3 104.9 C 379.1 107.6 387.9 112.6 396.9 117.1 C 439.2 138.5 470.5 180.7 477.3 227.7 C 479.1 237.1 478.9 246.6 479.3 256.0 C 479.7 268.0 479.4 280.0 480.4 291.9 C 480.7 298.3 480.8 304.7 481.7 311.0 C 482.2 315.1 482.4 319.3 482.8 323.4 C 482.8 329.0 483.8 334.5 484.2 340.0 C 488.1 372.4 493.7 404.6 502.7 436.0 C 509.6 460.1 518.3 483.8 530.3 505.9 C 537.4 518.5 545.3 531.0 555.5 541.4 C 565.9 552.6 578.8 561.9 593.9 565.4 C 593.9 582.6 593.9 599.8 593.9 617.0 C 529.6 617.1 465.4 617.0 401.1 617.0 C 394.5 643.1 374.4 665.3 349.0 674.3 C 323.2 683.6 292.6 679.3 270.9 662.2 C 256.2 651.0 245.5 634.8 240.9 617.0 C 182.0 617.0 123.0 617.1 64.1 617.0 C 64.1 599.8 64.1 582.6 64.1 565.4 C 71.8 563.4 79.2 560.3 85.8 555.9 C 101.7 544.8 114.0 529.4 123.7 512.7 C 134.0 495.6 141.7 477.1 148.3 458.3 C 167.9 400.3 176.0 339.0 178.3 278.1 C 178.4 265.0 178.8 252.0 179.3 238.9 C 181.1 216.9 187.7 195.2 199.0 176.0 C 216.3 145.9 244.4 122.3 276.9 110.1 C 279.8 108.9 282.7 107.9 285.7 106.8 C 285.2 106.4 284.4 105.6 283.9 105.2 C 283.8 104.9 283.5 104.2 283.4 103.9 C 281.5 100.4 278.8 97.5 276.8 94.2 C 268.0 80.3 262.5 63.5 264.8 47.0 C 265.7 34.7 271.2 22.6 280.9 14.8 C 289.1 7.8 299.7 4.4 310.1 2.2 C 312.8 1.7 315.4 1.1 317.9 0.0 M 320.5 36.8 C 314.9 37.6 309.5 40.6 306.7 45.6 C 303.4 51.4 301.6 58.6 303.8 65.2 C 305.4 71.8 310.9 76.8 317.2 78.8 C 324.2 81.7 332.4 81.3 339.3 78.3 C 346.4 74.8 349.4 66.5 349.1 59.1 C 349.5 52.0 347.8 43.7 341.3 39.8 C 335.1 36.1 327.5 35.6 320.5 36.8 M 310.9 174.9 C 311.1 187.9 311.0 201.0 311.0 214.0 C 300.7 214.0 290.3 214.0 280.0 214.0 C 280.0 225.0 280.0 236.0 280.0 247.0 C 290.3 247.0 300.7 247.0 311.0 247.0 C 311.0 260.7 311.0 274.3 311.0 288.0 C 321.3 288.0 331.7 288.0 342.0 288.0 C 342.0 274.3 342.0 260.7 342.0 247.0 C 352.3 247.0 362.7 247.0 373.0 247.0 C 373.0 236.0 373.0 225.0 373.0 214.0 C 362.7 214.0 352.3 214.0 342.0 214.0 C 342.0 201.0 341.9 187.9 342.1 174.9 C 340.9 175.8 339.5 176.2 338.0 176.0 C 330.4 176.0 322.7 176.0 315.0 176.0 C 313.5 176.2 312.1 175.8 310.9 174.9 M 261.5 334.1 C 259.3 336.2 255.8 333.9 253.5 335.8 C 252.1 336.0 250.6 335.9 249.5 336.8 C 247.3 336.8 245.4 337.6 243.5 338.7 C 241.4 339.7 239.8 341.5 238.6 343.5 C 237.7 346.0 237.6 349.0 238.6 351.5 C 239.5 353.6 241.8 354.4 243.5 355.8 C 244.6 355.9 245.6 356.3 246.5 356.8 C 247.0 356.9 248.0 357.1 248.5 357.2 C 250.2 358.6 252.5 357.8 254.5 358.1 C 258.4 360.2 263.2 358.4 267.5 359.1 C 267.9 359.3 268.7 359.7 269.1 359.9 C 273.5 360.2 278.0 359.8 282.5 360.1 C 282.9 360.3 283.7 360.7 284.1 360.9 C 311.7 361.1 339.4 360.9 367.0 361.0 C 368.5 360.9 370.3 361.4 371.5 360.1 C 375.0 359.9 378.5 360.0 382.0 360.0 C 383.5 359.9 385.3 360.4 386.5 359.1 C 390.2 358.9 393.8 359.1 397.5 358.9 C 399.7 356.9 403.1 359.0 405.5 357.3 C 407.2 356.9 408.9 356.1 410.5 355.3 C 412.2 354.6 413.5 353.2 414.4 351.5 C 415.4 349.0 415.4 346.0 414.4 343.5 C 413.2 341.0 410.5 340.2 408.4 338.7 C 406.4 337.2 403.7 337.2 401.5 336.2 C 400.1 335.9 398.5 336.2 397.5 335.1 C 395.2 335.0 392.8 335.0 390.5 334.9 C 389.3 333.6 387.5 334.1 386.0 334.0 C 344.5 334.1 303.0 333.9 261.5 334.1 M 269.5 389.1 C 266.4 391.5 261.7 388.5 258.5 390.9 C 256.5 391.1 254.2 390.5 252.5 391.8 C 251.1 392.0 249.7 392.0 248.5 392.7 C 247.1 393.1 245.7 393.6 244.4 394.2 C 241.9 395.4 239.9 397.5 238.0 399.4 C 238.0 401.4 238.0 403.5 238.0 405.5 C 238.9 406.4 239.9 407.4 240.3 408.7 C 241.8 409.5 243.1 410.4 244.5 411.4 C 245.9 411.8 247.2 412.2 248.5 412.8 C 249.0 412.9 250.0 413.1 250.5 413.2 C 251.6 414.1 253.1 413.9 254.5 414.2 C 255.9 415.3 257.8 414.9 259.5 415.1 C 261.7 417.2 265.3 414.8 267.5 416.9 C 299.5 417.1 331.5 417.1 363.5 416.9 C 367.7 414.8 372.9 416.7 377.5 415.9 C 380.3 413.5 384.7 416.5 387.5 414.1 C 389.8 413.8 392.5 414.7 394.5 413.1 C 396.2 412.9 398.1 413.3 399.5 412.2 C 400.8 411.9 402.4 412.1 403.5 411.2 C 404.0 411.1 405.0 410.9 405.5 410.8 C 406.4 410.3 407.5 409.9 408.5 409.7 C 409.1 409.5 410.1 409.0 410.6 408.7 C 412.2 408.1 413.7 407.2 414.4 405.5 C 415.3 403.6 415.0 401.5 415.0 399.4 C 413.2 397.7 411.6 395.8 409.5 394.6 C 407.9 393.9 406.2 393.1 404.5 392.7 C 403.3 392.0 401.8 392.0 400.5 391.8 C 398.8 390.5 396.5 391.1 394.5 390.9 C 391.6 389.0 387.8 390.5 384.5 389.9 C 384.1 389.7 383.3 389.3 382.9 389.1 C 345.1 389.0 307.3 388.9 269.5 389.1 Z" />
</svg>
