<?xml version="1.0" encoding="UTF-8" ?>
<!DOCTYPE svg PUBLIC "-//W3C//DTD SVG 1.1//EN" "http://www.w3.org/Graphics/SVG/1.1/DTD/svg11.dtd">
<svg width="680pt" height="680pt" viewBox="0 0 680 680" version="1.1" xmlns="http://www.w3.org/2000/svg">
<path fill="#595959" stroke="#595959" stroke-width="0.09375" opacity="1.00" d=" M 102.9 72.9 C 141.0 40.2 189.8 20.1 239.9 16.3 C 289.9 12.3 341.0 24.2 383.8 50.3 C 423.1 74.0 455.4 109.3 475.3 150.7 C 495.9 192.7 503.5 240.8 497.4 287.1 C 491.8 331.4 473.5 373.9 445.2 408.4 C 445.3 409.8 445.4 411.2 445.4 412.7 L 446.7 412.2 L 446.3 413.6 L 447.2 413.6 C 449.6 417.8 453.1 421.1 456.5 424.5 C 501.2 473.9 546.1 523.0 591.1 572.0 C 593.1 574.3 595.7 576.7 595.8 580.0 C 580.5 591.2 565.9 603.2 550.8 614.5 C 549.9 614.6 549.2 614.3 548.6 613.5 C 510.5 571.2 472.5 528.9 434.3 486.6 C 423.7 474.7 412.4 463.2 403.1 450.2 C 399.7 450.2 397.4 453.1 394.7 454.7 C 373.9 469.0 350.7 479.9 326.5 486.9 C 279.8 500.5 229.1 499.6 183.0 484.3 C 159.6 476.5 137.4 465.1 117.4 450.6 C 76.6 421.1 45.6 378.4 30.3 330.4 C 11.5 272.8 15.4 208.1 41.4 153.4 C 55.8 122.5 77.0 94.9 102.9 72.9 M 243.2 38.2 C 189.9 41.4 138.3 65.8 101.7 104.8 C 75.7 132.3 57.3 166.9 48.8 203.8 C 41.6 235.1 41.6 268.1 48.7 299.5 C 56.4 333.4 72.5 365.4 95.3 391.7 C 126.1 427.7 169.4 452.7 215.9 461.6 C 261.8 470.6 310.6 464.2 352.5 443.3 C 366.2 436.6 378.8 427.9 391.5 419.3 C 399.2 413.9 405.6 406.9 411.8 399.7 C 438.6 371.9 457.6 336.6 466.1 298.9 C 475.7 256.5 472.2 211.2 455.9 170.9 C 441.2 134.5 416.4 102.4 384.8 79.2 C 344.5 49.3 293.3 34.4 243.2 38.2 Z" />
</svg>
