<?xml version="1.0" encoding="UTF-8" ?>
<!DOCTYPE svg PUBLIC "-//W3C//DTD SVG 1.1//EN" "http://www.w3.org/Graphics/SVG/1.1/DTD/svg11.dtd">
<svg width="680pt" height="680pt" viewBox="0 0 680 680" version="1.1" xmlns="http://www.w3.org/2000/svg">
<path fill="#b48f0d" stroke="#b48f0d" stroke-width="0.09375" opacity="1.00" d=" M 73.8 28.9 C 86.3 27.0 99.5 29.1 110.4 35.5 C 124.8 43.7 135.0 58.6 137.5 74.9 C 140.0 88.9 136.7 103.8 128.6 115.6 C 120.6 127.3 108.0 135.7 94.1 138.5 C 80.4 141.4 65.6 138.7 53.7 131.3 C 40.5 123.1 31.1 109.2 28.5 93.9 C 25.5 78.0 30.0 60.9 40.3 48.4 C 48.6 38.1 60.8 31.2 73.8 28.9 Z" />
<path fill="#f9f9f9" stroke="#f9f9f9" stroke-width="0.09375" opacity="1.00" d=" M 298.2 53.1 C 357.8 45.3 419.6 54.3 474.1 79.7 C 522.9 103.0 565.9 140.2 591.8 188.0 C 605.7 213.0 614.5 240.7 618.6 269.0 C 619.4 282.7 621.1 296.5 619.8 310.2 C 617.8 348.6 606.0 386.3 586.6 419.5 C 576.4 437.4 564.0 453.9 550.1 469.1 C 548.2 471.3 545.6 473.0 544.7 475.9 C 546.2 480.0 545.6 484.6 546.7 488.8 C 549.3 509.7 552.4 530.6 554.8 551.5 C 555.9 556.6 555.9 561.8 557.1 566.9 C 558.3 579.6 560.8 592.1 561.7 604.8 C 555.2 602.0 548.7 599.5 542.2 596.8 C 504.1 581.4 466.0 566.1 428.0 550.6 C 426.0 550.2 424.4 551.4 422.6 552.0 C 418.5 553.5 414.2 554.8 410.0 556.1 C 378.7 566.0 345.9 570.8 313.1 571.2 C 303.1 571.3 293.1 571.0 283.1 569.9 C 279.7 569.6 276.3 569.5 272.9 569.1 C 262.8 567.8 252.7 566.1 242.7 564.1 C 205.2 555.8 168.9 540.9 137.2 519.0 C 132.5 514.4 126.7 511.4 121.7 507.3 C 101.6 491.6 84.1 472.5 69.8 451.3 C 65.0 444.3 61.1 436.7 56.7 429.5 C 51.8 419.3 47.0 409.1 43.4 398.4 C 41.6 393.8 40.5 388.8 38.8 384.2 C 38.6 380.7 36.6 377.8 36.3 374.4 C 34.9 366.1 32.6 357.9 32.3 349.5 C 25.5 293.7 41.0 236.3 71.7 189.6 C 108.4 133.2 165.3 91.3 228.5 69.4 C 235.2 67.0 242.0 64.9 248.8 62.9 C 251.5 62.3 254.0 61.5 256.7 60.9 C 265.8 57.8 275.5 56.9 284.8 54.8 C 289.2 53.7 293.8 53.5 298.2 53.1 Z" />
</svg>
