<?xml version="1.0" encoding="UTF-8" ?>
<!DOCTYPE svg PUBLIC "-//W3C//DTD SVG 1.1//EN" "http://www.w3.org/Graphics/SVG/1.1/DTD/svg11.dtd">
<svg width="680pt" height="680pt" viewBox="0 0 680 680" version="1.1" xmlns="http://www.w3.org/2000/svg">
<path fill="#f9f9f9" stroke="#f9f9f9" stroke-width="0.09375" opacity="1.00" d=" M 298.3 53.1 C 357.8 45.3 419.6 54.3 474.0 79.7 C 518.9 101.1 559.0 134.2 585.2 176.8 C 595.7 193.4 603.9 211.4 609.8 230.2 C 610.8 234.2 612.4 237.9 612.9 242.0 C 615.8 249.6 616.3 257.9 618.1 265.8 C 619.2 275.5 619.7 285.3 620.3 295.0 C 620.5 322.9 615.7 350.8 606.3 377.1 C 593.6 413.0 572.5 445.8 546.2 473.2 C 545.5 474.0 545.0 474.9 544.7 475.9 C 545.9 478.1 545.4 480.8 545.9 483.2 C 549.8 511.1 553.1 539.1 557.1 566.9 C 558.3 579.6 560.8 592.1 561.7 604.8 C 557.1 602.8 552.5 601.0 547.8 599.1 C 546.0 598.3 544.1 597.6 542.2 596.8 C 505.3 582.0 468.5 567.0 431.6 552.1 C 429.7 551.4 427.7 549.8 425.6 550.8 C 420.6 553.0 415.2 554.4 410.0 556.1 C 386.4 563.5 361.8 568.4 337.1 570.0 C 319.4 571.7 301.6 571.6 284.0 570.1 C 280.7 569.3 277.0 570.2 273.9 568.7 L 273.1 569.4 C 263.0 567.6 252.8 566.2 242.7 564.1 C 209.8 556.7 177.9 544.6 149.2 526.8 C 144.0 523.5 138.4 520.5 134.0 516.1 C 130.0 513.0 125.6 510.5 121.7 507.3 C 84.8 478.4 56.5 438.7 41.9 394.1 C 40.9 390.8 40.0 387.4 38.8 384.2 C 38.7 382.0 37.9 379.9 37.1 377.8 C 32.0 356.3 29.9 334.2 31.0 312.1 C 32.4 284.0 39.0 256.1 50.0 230.2 C 70.4 182.1 105.5 141.0 147.9 110.9 C 178.4 89.2 212.7 73.1 248.8 62.9 C 249.9 62.7 251.1 62.4 252.2 62.1 C 253.7 61.6 255.2 61.2 256.7 60.9 C 265.8 57.8 275.4 56.9 284.8 54.8 C 289.2 53.7 293.8 53.5 298.3 53.1 Z" />
</svg>
