<?xml version="1.0" encoding="UTF-8" ?>
<!DOCTYPE svg PUBLIC "-//W3C//DTD SVG 1.1//EN" "http://www.w3.org/Graphics/SVG/1.1/DTD/svg11.dtd">
<svg width="750pt" height="750pt" viewBox="0 0 750 750" version="1.1" xmlns="http://www.w3.org/2000/svg">
<path fill="#ffffff" stroke="#ffffff" stroke-width="0.09375" opacity="1.00" d=" M 222.1 40.2 C 243.5 24.6 270.7 17.2 297.0 20.2 C 320.0 22.6 341.9 32.7 358.8 48.2 C 378.1 65.7 390.9 90.2 393.8 116.0 C 397.0 142.4 390.2 170.0 374.4 191.4 C 367.3 200.8 362.7 211.8 354.5 220.4 C 362.5 220.4 370.5 220.4 378.6 220.4 C 374.7 230.7 371.8 241.2 368.3 251.6 C 377.1 251.5 386.5 251.1 394.2 255.8 C 406.2 262.5 412.5 277.9 408.6 291.1 C 405.7 302.8 395.1 312.1 383.2 313.6 C 374.0 314.5 364.8 313.9 355.7 314.2 C 354.5 324.4 353.5 334.7 352.6 344.9 C 352.0 351.6 353.0 358.3 352.1 364.9 C 351.7 367.5 351.8 370.0 351.7 372.6 L 352.4 372.4 C 352.8 379.3 351.2 386.2 352.3 393.1 C 352.3 409.3 355.7 425.2 358.4 441.1 C 359.5 447.4 360.1 453.7 361.7 459.9 C 365.9 478.8 369.3 497.9 374.8 516.4 C 384.2 518.6 393.7 520.1 403.2 521.8 C 410.3 523.1 414.3 530.1 416.3 536.5 C 419.2 546.7 421.9 557.2 428.1 566.0 C 437.4 578.8 453.1 584.6 463.9 596.0 C 474.3 606.0 480.4 620.7 478.5 635.2 C 477.9 641.9 474.9 648.1 472.1 654.2 C 479.4 661.5 485.8 669.7 493.4 676.7 C 497.6 680.8 502.9 683.8 506.1 688.9 C 514.9 701.5 511.4 720.2 499.6 729.6 C 493.1 735.2 484.3 737.1 476.0 736.9 C 356.0 736.9 236.0 736.9 116.0 736.9 C 105.5 736.8 95.0 737.6 84.5 736.2 C 71.1 734.2 59.9 722.4 58.5 708.9 C 57.2 699.4 61.2 689.6 68.0 682.9 C 72.0 678.8 77.8 676.9 81.7 672.6 C 86.6 667.2 91.7 661.9 96.5 656.5 C 89.2 646.2 86.5 633.4 85.5 621.0 C 87.2 611.2 91.3 601.4 99.0 594.8 C 111.9 583.4 127.7 575.3 138.8 561.7 C 148.0 550.7 146.5 534.1 156.9 523.9 C 166.8 515.4 181.7 521.7 191.7 513.8 C 194.1 512.3 194.1 509.2 194.9 506.9 C 208.8 457.5 218.8 406.5 218.0 355.0 C 216.7 341.5 219.2 327.8 216.3 314.4 C 204.3 313.1 191.7 316.1 180.1 311.6 C 165.9 306.3 157.5 289.3 161.8 274.8 C 164.3 265.1 171.8 256.9 181.3 253.6 C 187.9 251.1 195.1 251.5 202.0 251.7 C 198.5 241.3 195.8 230.5 191.6 220.3 C 199.7 220.5 207.8 220.4 216.0 220.5 C 210.4 214.0 205.3 207.1 201.6 199.4 C 199.3 194.8 196.3 190.7 193.5 186.4 C 178.7 163.4 172.9 134.7 178.5 107.8 C 183.6 80.8 199.8 56.2 222.1 40.2 Z" />
<path fill="#b48f0d" stroke="#b48f0d" stroke-width="0.09375" opacity="1.00" d=" M 67.1 36.2 C 81.6 29.8 98.5 29.3 113.2 35.1 C 127.8 40.6 140.0 52.0 146.6 66.2 C 153.4 80.6 154.4 97.8 149.2 112.9 C 144.7 125.8 135.9 137.1 124.4 144.4 C 109.2 154.3 89.4 156.6 72.2 150.9 C 59.1 146.6 47.5 137.6 40.1 125.8 C 31.5 112.5 28.5 95.7 31.8 80.1 C 35.6 60.9 49.1 43.9 67.1 36.2 Z" />
<path fill="#ffffff" stroke="#ffffff" stroke-width="0.09375" opacity="1.00" d=" M 501.9 108.3 C 517.9 104.4 534.9 105.3 550.5 110.4 C 567.5 116.1 582.8 127.1 593.7 141.3 C 605.9 157.1 612.6 177.0 612.2 197.0 C 612.1 215.3 606.1 233.5 595.2 248.1 C 589.6 255.7 585.8 264.5 579.1 271.3 C 585.8 271.3 592.5 271.4 599.1 271.3 C 595.9 279.7 593.5 288.4 590.7 297.0 C 597.9 296.9 605.8 296.6 612.1 300.6 C 621.8 306.1 626.9 318.4 624.0 329.1 C 622.0 337.1 616.0 343.8 608.4 346.6 C 599.4 349.7 589.6 348.0 580.3 348.5 C 579.5 355.4 578.7 362.4 578.2 369.5 C 577.0 376.9 577.9 384.5 577.2 392.0 C 577.6 403.0 576.8 414.0 578.0 425.0 C 579.6 438.5 582.4 451.8 584.4 465.2 C 588.3 481.8 591.2 498.7 596.0 515.1 C 604.0 517.0 612.3 518.1 620.4 519.8 C 626.2 521.5 629.0 527.5 630.6 532.9 C 633.2 542.4 636.1 552.5 643.2 559.8 C 651.2 567.9 662.0 572.7 669.8 581.1 C 678.4 589.5 683.2 601.9 681.3 613.9 C 680.6 619.1 678.2 623.8 676.1 628.6 C 683.5 635.9 689.7 644.3 698.0 650.8 C 702.1 653.9 705.5 658.1 707.1 663.1 C 710.2 672.9 706.7 684.3 698.7 690.7 C 693.5 695.1 686.7 696.7 680.1 696.7 C 633.2 696.8 586.3 696.7 539.3 696.7 C 537.3 691.0 533.9 685.7 529.0 682.0 C 518.6 674.0 510.6 663.5 501.5 654.1 C 504.6 647.1 508.1 639.9 508.0 632.0 C 508.8 619.0 503.2 606.0 494.1 596.9 C 484.9 586.8 472.3 581.0 462.4 571.7 C 454.1 563.9 450.3 552.8 447.2 542.1 C 445.4 534.7 442.7 526.5 435.5 522.6 C 430.4 520.6 424.7 520.5 419.4 519.2 C 426.5 515.9 434.7 517.8 441.9 514.9 C 444.1 513.8 446.7 512.5 447.1 509.9 C 459.0 468.0 467.8 424.7 466.8 381.0 C 465.9 370.2 467.8 359.3 465.5 348.7 C 455.7 347.6 445.5 350.1 436.1 346.6 C 426.1 343.1 419.3 332.6 419.7 322.0 C 419.8 313.3 425.1 305.0 432.5 300.6 C 438.7 296.5 446.6 296.7 453.7 297.2 C 450.8 288.5 448.5 279.7 445.1 271.2 C 451.8 271.4 458.5 271.3 465.2 271.4 C 460.7 266.2 456.6 260.6 453.5 254.4 C 452.0 251.4 450.3 248.6 448.4 245.9 C 437.7 230.6 432.1 211.8 432.6 193.1 C 433.2 175.4 439.1 157.9 449.5 143.6 C 462.1 126.1 480.9 113.2 501.9 108.3 Z" />
</svg>
