<?xml version="1.0" encoding="UTF-8" ?>
<!DOCTYPE svg PUBLIC "-//W3C//DTD SVG 1.1//EN" "http://www.w3.org/Graphics/SVG/1.1/DTD/svg11.dtd">
<svg width="750pt" height="750pt" viewBox="0 0 750 750" version="1.1" xmlns="http://www.w3.org/2000/svg">
<path fill="#ffffff" stroke="#ffffff" stroke-width="0.09375" opacity="1.00" d=" M 224.0 38.9 C 245.9 23.5 273.7 16.8 300.2 20.6 C 322.2 23.5 343.1 33.6 359.3 48.7 C 379.8 67.4 392.8 94.2 394.4 121.9 C 395.9 146.5 389.0 171.6 374.4 191.4 C 367.3 200.8 362.7 211.8 354.5 220.4 C 362.5 220.4 370.5 220.4 378.6 220.4 C 374.7 230.7 371.8 241.2 368.3 251.6 C 377.0 251.5 386.4 251.1 394.2 255.8 C 406.2 262.5 412.5 277.8 408.6 291.1 C 405.7 302.8 395.1 312.1 383.2 313.6 C 374.0 314.5 364.8 313.9 355.7 314.2 C 354.5 324.4 353.5 334.7 352.6 345.0 C 352.2 351.5 352.6 357.9 352.3 364.4 L 351.7 364.5 C 351.8 366.7 351.8 368.9 351.8 371.2 C 353.6 378.0 350.9 385.1 352.2 392.0 C 352.4 413.2 357.6 433.9 360.6 454.8 C 365.3 475.4 368.9 496.2 374.8 516.5 C 384.2 518.6 393.8 520.1 403.3 521.9 C 410.3 523.2 414.3 530.1 416.3 536.5 C 419.3 547.0 422.1 558.1 428.8 567.0 C 438.3 579.1 453.4 585.0 463.9 596.0 C 474.5 606.2 480.6 621.4 478.4 636.1 C 477.6 642.5 474.7 648.4 472.1 654.2 C 479.4 661.5 485.8 669.7 493.4 676.7 C 497.6 680.8 502.9 683.8 506.1 688.9 C 514.9 701.5 511.4 720.2 499.6 729.6 C 493.1 735.2 484.4 737.0 476.0 736.9 C 361.0 736.9 246.0 736.9 131.0 736.9 C 120.3 736.9 109.6 736.8 99.0 737.1 C 91.6 736.8 83.8 737.2 76.9 733.9 C 66.4 729.2 58.8 718.5 58.4 706.9 C 57.7 695.7 64.0 684.4 73.6 678.6 C 76.4 676.9 79.4 675.2 81.6 672.7 C 86.6 667.3 91.6 662.0 96.5 656.6 C 89.3 646.2 86.5 633.5 85.5 621.0 C 87.1 612.0 90.7 602.9 97.3 596.3 C 110.5 584.0 127.3 575.9 138.8 561.7 C 147.8 550.9 146.5 534.8 156.4 524.4 C 166.5 514.7 183.6 522.6 193.3 512.2 C 205.3 471.4 214.3 429.4 217.2 386.9 C 217.8 374.3 218.6 361.6 217.7 349.0 C 217.2 337.5 218.8 325.8 216.3 314.4 C 204.3 313.1 191.7 316.1 180.1 311.7 C 165.9 306.4 157.5 289.3 161.8 274.8 C 164.4 265.1 171.9 256.9 181.4 253.6 C 188.0 251.1 195.1 251.5 202.0 251.7 C 198.5 241.3 195.7 230.6 191.6 220.3 C 199.7 220.5 207.9 220.4 216.0 220.5 C 210.4 214.0 205.3 207.1 201.6 199.4 C 199.4 194.9 196.3 190.7 193.5 186.5 C 178.7 163.5 172.9 134.7 178.5 107.9 C 183.7 80.0 200.7 54.9 224.0 38.9 Z" />
<path fill="#ffffff" stroke="#ffffff" stroke-width="0.09375" opacity="1.00" d=" M 501.9 108.3 C 522.6 103.3 545.0 106.2 563.8 116.1 C 580.1 124.7 593.8 138.4 602.2 154.7 C 615.8 180.5 615.6 213.0 601.4 238.4 C 598.4 244.2 594.0 249.2 590.7 254.8 C 587.2 260.5 583.9 266.5 579.2 271.3 C 585.8 271.3 592.5 271.4 599.1 271.3 C 595.8 279.8 593.6 288.6 590.5 297.2 C 598.0 296.7 606.3 296.7 612.8 301.0 C 622.0 306.6 626.8 318.6 624.0 329.1 C 622.1 337.0 616.0 343.7 608.4 346.6 C 599.4 349.7 589.6 348.0 580.3 348.4 C 579.0 360.9 577.2 373.4 577.5 386.0 C 576.8 392.2 577.7 398.4 577.3 404.5 C 576.6 421.5 579.9 438.3 582.8 454.9 C 584.6 467.8 587.9 480.4 590.5 493.1 C 592.1 500.5 593.9 507.8 596.0 515.1 C 604.1 517.0 612.3 518.1 620.4 519.8 C 626.2 521.6 629.0 527.6 630.6 532.9 C 633.2 542.5 636.1 552.6 643.2 559.9 C 651.2 568.0 662.0 572.8 669.9 581.2 C 678.4 589.5 683.2 602.0 681.3 613.9 C 680.6 619.1 678.2 623.8 676.1 628.6 C 683.6 636.1 690.1 644.7 698.6 651.3 C 703.8 655.3 707.6 661.3 708.0 668.0 C 709.2 677.4 704.4 687.2 696.4 692.4 C 691.3 695.8 685.0 696.7 679.0 696.7 C 632.4 696.7 585.9 696.7 539.3 696.7 C 537.3 691.0 533.9 685.7 529.0 681.9 C 518.6 673.9 510.6 663.4 501.5 654.1 C 504.0 648.3 506.9 642.5 507.7 636.1 C 509.8 621.6 504.1 606.5 493.6 596.4 C 484.3 586.4 471.5 580.6 461.8 571.1 C 453.6 563.0 449.9 551.8 446.9 540.9 C 445.2 533.7 442.0 525.7 434.9 522.3 C 429.9 520.7 424.5 520.4 419.4 519.2 C 426.7 515.8 435.3 518.0 442.6 514.6 C 444.4 513.5 446.7 512.3 447.1 510.0 C 459.6 465.9 468.7 420.1 466.5 374.1 C 466.5 365.6 467.3 357.1 465.5 348.7 C 455.8 347.5 445.6 350.1 436.2 346.6 C 426.1 343.1 419.3 332.6 419.7 322.0 C 419.8 312.7 425.7 304.1 433.8 299.8 C 439.9 296.5 447.1 296.8 453.7 297.2 C 450.8 288.5 448.5 279.7 445.1 271.2 C 451.8 271.4 458.5 271.3 465.2 271.4 C 462.5 268.2 459.9 264.9 457.6 261.4 C 454.4 256.8 452.4 251.4 449.0 246.9 C 438.9 232.7 433.1 215.4 432.6 198.0 C 432.1 178.7 438.1 159.2 449.5 143.6 C 462.1 126.1 480.9 113.2 501.9 108.3 Z" />
</svg>
