<?xml version="1.0" encoding="UTF-8" ?>
<!DOCTYPE svg PUBLIC "-//W3C//DTD SVG 1.1//EN" "http://www.w3.org/Graphics/SVG/1.1/DTD/svg11.dtd">
<svg width="680pt" height="680pt" viewBox="0 0 680 680" version="1.1" xmlns="http://www.w3.org/2000/svg">
<path fill="#f9f9f9" stroke="#f9f9f9" stroke-width="0.09375" opacity="1.00" d=" M 317.7 0.0 L 338.0 0.0 C 338.4 0.3 339.2 0.8 339.6 1.0 C 352.0 2.8 364.6 7.3 373.5 16.5 C 379.3 22.7 384.1 30.3 385.6 38.8 C 386.5 44.2 388.7 49.4 388.9 55.0 C 388.4 73.2 380.2 90.3 369.1 104.3 C 377.0 107.5 384.9 110.7 392.4 114.8 C 414.8 125.5 434.7 141.6 449.5 161.6 C 466.4 183.9 476.5 211.2 478.7 239.0 C 479.4 254.3 479.5 269.6 479.9 284.9 C 481.0 294.6 480.3 304.4 482.1 314.0 C 483.9 348.7 489.9 383.1 497.6 417.0 C 504.9 445.7 514.0 474.2 527.5 500.6 C 537.6 519.7 549.7 538.5 567.0 551.9 C 574.7 558.6 584.2 562.8 593.9 565.5 C 593.8 582.7 593.9 599.8 593.9 616.9 C 529.6 617.1 465.3 617.0 401.1 617.0 C 395.0 641.0 377.5 661.9 354.8 671.9 C 337.4 680.0 317.0 681.0 298.5 676.1 C 270.7 668.4 247.9 645.1 240.9 617.0 C 182.0 617.0 123.1 617.1 64.1 616.9 C 64.1 599.8 64.2 582.7 64.1 565.5 C 66.9 564.5 69.7 563.7 72.6 562.9 C 83.3 558.6 92.5 551.6 100.5 543.5 C 117.1 526.9 128.4 506.0 138.1 484.8 C 149.5 457.9 157.9 429.7 163.9 401.1 C 171.7 364.2 176.1 326.6 177.8 288.9 C 179.5 264.0 176.8 238.5 183.5 214.0 C 191.7 180.8 212.1 150.9 239.5 130.5 C 251.7 121.2 265.6 114.6 279.7 108.7 L 280.7 108.6 C 282.7 107.9 284.6 107.3 286.6 106.7 C 286.0 106.7 284.9 106.7 284.3 106.7 L 284.7 105.4 L 283.7 105.7 C 282.9 100.7 278.1 97.5 276.0 93.0 C 267.9 79.6 262.8 63.7 264.7 48.0 C 265.4 37.5 269.2 27.2 276.2 19.4 C 284.0 10.5 295.1 5.7 306.4 3.0 C 310.1 1.8 314.3 1.9 317.7 0.0 M 320.5 36.8 C 315.2 37.6 309.9 40.3 307.0 45.1 C 303.3 51.2 301.5 59.0 304.0 65.9 C 305.7 72.2 311.2 76.9 317.3 78.8 C 323.8 81.6 331.3 81.2 337.9 78.9 C 344.0 76.7 347.9 70.5 348.8 64.2 C 349.6 56.6 349.6 47.9 344.1 41.9 C 337.9 36.1 328.5 35.5 320.5 36.8 M 311.0 174.8 C 311.0 187.9 311.0 200.9 311.0 214.0 C 300.7 214.0 290.3 214.0 280.0 214.0 C 280.0 225.0 280.0 236.0 280.0 247.0 C 290.3 247.0 300.7 247.0 311.0 247.0 C 311.0 260.7 311.0 274.3 311.0 288.0 C 321.3 288.0 331.7 288.0 342.0 288.0 C 342.0 274.3 342.0 260.7 342.0 247.0 C 352.3 247.0 362.7 247.0 373.0 247.0 C 373.0 236.0 373.0 225.0 373.0 214.0 C 362.7 214.0 352.3 214.0 342.0 214.0 C 342.0 200.9 342.0 187.9 342.0 174.8 C 341.2 175.7 340.2 176.1 339.0 176.0 C 330.7 176.0 322.3 176.0 314.0 176.0 C 312.8 176.1 311.8 175.7 311.0 174.8 M 260.6 335.0 C 258.5 335.0 256.4 335.0 254.4 335.0 C 253.7 336.6 251.7 335.8 250.4 336.1 C 249.4 337.9 246.8 336.2 245.6 337.7 C 242.8 338.8 239.8 340.6 238.7 343.6 C 237.5 345.8 237.5 349.2 238.7 351.4 C 239.1 352.9 240.1 354.1 241.8 354.2 C 242.1 354.6 242.9 355.5 243.3 355.9 C 244.6 355.7 245.6 356.0 246.4 356.9 C 246.9 357.0 248.1 357.0 248.6 357.1 C 249.9 358.9 252.7 357.6 254.6 358.0 L 255.3 358.9 C 259.4 359.2 263.5 358.9 267.6 359.0 L 268.3 359.9 C 273.1 360.2 277.9 359.9 282.6 360.0 C 283.4 361.7 285.6 360.7 287.0 361.0 C 314.9 360.9 342.8 361.1 370.7 360.9 L 371.4 360.0 C 376.1 359.9 380.9 360.1 385.6 360.0 L 386.3 359.1 C 390.1 358.7 393.9 359.3 397.7 358.9 L 398.4 358.0 C 400.6 357.6 403.7 359.0 405.4 357.1 C 405.9 357.0 407.1 356.9 407.6 356.9 C 408.5 356.3 409.4 355.7 410.3 355.3 C 412.2 354.8 413.7 353.2 414.3 351.4 C 415.5 349.2 415.5 345.8 414.3 343.6 C 413.9 342.1 412.9 341.0 411.3 340.8 C 410.3 339.6 409.0 338.9 407.7 338.3 C 405.9 336.7 403.1 337.7 401.6 336.0 C 400.5 336.0 399.4 336.0 398.4 336.0 C 396.5 333.9 392.9 335.5 390.4 335.0 L 389.7 334.1 C 347.1 333.9 304.6 334.0 262.1 334.0 C 261.7 334.3 261.0 334.7 260.6 335.0 M 269.3 389.1 L 268.6 390.0 C 265.5 390.0 262.5 390.0 259.4 390.0 C 258.0 392.4 254.1 389.6 252.6 391.9 C 251.3 392.2 249.5 391.5 248.6 392.8 C 246.8 392.9 245.2 393.8 243.6 394.7 C 241.2 395.5 240.0 397.9 238.0 399.3 C 238.0 401.4 238.0 403.6 238.0 405.7 C 239.1 406.5 240.2 407.4 240.2 408.8 C 242.0 409.0 242.9 410.8 244.6 411.3 C 245.5 411.9 246.5 412.2 247.6 412.1 C 248.4 412.9 249.4 413.2 250.6 413.1 C 251.7 414.9 254.5 413.0 255.4 414.9 C 257.0 415.3 259.4 414.2 260.4 416.0 C 262.4 416.0 264.5 416.0 266.6 416.0 L 267.3 416.9 C 299.4 417.1 331.5 417.0 363.6 417.0 L 364.3 416.1 C 368.8 415.7 373.2 416.3 377.7 415.9 L 378.4 415.0 C 381.2 414.4 385.2 416.2 387.4 414.0 C 389.4 414.0 391.5 414.0 393.6 414.0 C 394.6 412.2 397.0 413.3 398.6 412.9 C 399.5 411.0 402.4 413.0 403.4 411.1 C 403.9 411.0 405.1 411.0 405.6 410.9 C 407.0 409.6 409.1 409.8 410.7 408.7 C 412.2 408.0 414.0 407.3 414.3 405.4 C 415.7 403.7 414.7 401.3 415.0 399.3 C 412.9 397.6 411.3 395.3 408.7 394.3 C 407.3 393.6 405.9 392.9 404.4 392.8 C 403.5 391.5 401.7 392.2 400.4 391.9 C 398.9 389.6 395.0 392.4 393.6 390.0 C 390.5 389.9 387.4 390.2 384.3 389.9 L 383.6 389.0 C 345.5 389.0 307.4 388.9 269.3 389.1 Z" />
<path fill="#b48f0d" stroke="#b48f0d" stroke-width="0.09375" opacity="1.00" d=" M 73.7 28.9 C 86.3 27.0 99.5 29.1 110.5 35.5 C 125.1 43.9 135.4 59.2 137.7 75.9 C 140.3 92.7 134.7 110.6 122.7 122.7 C 112.5 133.5 97.8 139.7 83.0 139.6 C 68.2 139.7 53.4 133.5 43.2 122.7 C 35.4 114.7 30.1 104.2 28.4 93.1 C 25.7 77.4 30.2 60.7 40.3 48.4 C 48.6 38.1 60.8 31.2 73.7 28.9 Z" />
</svg>
