<?xml version="1.0" encoding="UTF-8" ?>
<!DOCTYPE svg PUBLIC "-//W3C//DTD SVG 1.1//EN" "http://www.w3.org/Graphics/SVG/1.1/DTD/svg11.dtd">
<svg width="750pt" height="750pt" viewBox="0 0 750 750" version="1.1" xmlns="http://www.w3.org/2000/svg">
<path fill="#b50f10" stroke="#b50f10" stroke-width="0.09375" opacity="1.00" d=" M 0.0 0.0 L 750.0 0.0 L 750.0 750.0 L 716.7 750.0 C 731.0 747.4 742.0 733.5 741.5 719.0 C 741.8 710.0 737.1 701.3 730.0 695.9 C 719.6 687.9 711.7 677.4 702.6 668.2 C 705.2 662.4 708.2 656.5 708.9 650.1 C 711.1 635.5 705.2 620.5 694.7 610.3 C 685.0 600.1 671.6 594.2 661.9 584.0 C 653.5 574.9 650.2 562.6 647.0 551.0 C 645.0 544.6 641.1 537.4 634.0 535.9 C 624.4 534.1 614.8 532.6 605.3 530.5 C 599.4 510.5 595.9 490.0 591.3 469.8 C 589.2 456.2 586.6 442.7 584.6 429.1 C 582.6 415.8 582.2 402.4 582.6 389.1 C 582.0 368.7 583.8 348.3 586.2 328.1 C 595.5 328.0 604.9 328.6 614.2 327.5 C 626.6 325.8 637.3 315.5 639.6 303.1 C 642.4 290.5 636.2 276.5 625.0 270.0 C 617.2 265.1 607.7 265.5 598.9 265.6 C 602.3 255.2 605.3 244.7 609.1 234.4 C 601.1 234.4 593.0 234.4 585.0 234.3 C 591.2 227.8 595.5 219.8 600.3 212.2 C 603.1 207.5 606.7 203.3 609.5 198.6 C 621.1 179.6 626.4 157.0 624.8 134.9 C 622.8 105.0 607.5 76.5 584.2 57.8 C 568.9 45.5 550.4 37.2 530.9 34.6 C 504.7 30.8 477.1 37.3 455.3 52.3 C 431.5 68.3 414.2 93.8 408.9 122.1 C 404.0 146.3 408.2 172.2 420.1 193.9 C 423.7 200.8 428.8 206.7 432.2 213.7 C 435.9 221.3 441.0 228.1 446.4 234.5 C 438.3 234.4 430.2 234.5 422.1 234.3 C 426.2 244.6 429.0 255.2 432.5 265.7 C 424.0 265.4 415.0 265.2 407.4 269.6 C 396.9 275.2 390.3 287.2 391.3 299.1 C 392.1 311.1 400.5 322.5 412.1 326.2 C 423.3 329.9 435.3 327.2 446.8 328.4 C 449.0 338.5 448.0 348.8 448.1 359.0 C 450.8 415.0 439.7 470.5 424.5 524.1 C 424.2 526.2 422.6 527.7 420.8 528.8 C 410.6 535.2 396.5 529.7 387.1 538.1 C 376.9 548.5 378.4 565.0 369.0 576.0 C 357.5 590.1 340.7 598.2 327.6 610.6 C 321.2 617.1 317.5 626.0 316.1 634.9 C 316.8 647.4 319.8 660.2 327.0 670.6 C 322.0 676.0 317.0 681.5 311.9 686.9 C 308.2 690.8 303.1 692.7 299.2 696.2 C 292.0 702.9 287.6 713.1 289.1 723.0 C 290.4 736.0 300.9 747.3 313.5 750.0 L 0.0 750.0 L 0.0 0.0 Z" />
<path fill="#f9f9f9" stroke="#f9f9f9" stroke-width="0.09375" opacity="1.00" d=" M 455.3 52.3 C 477.1 37.3 504.7 30.8 530.9 34.6 C 550.4 37.2 568.9 45.5 584.2 57.8 C 607.5 76.5 622.8 105.0 624.8 134.9 C 626.4 157.0 621.1 179.6 609.5 198.6 C 606.7 203.3 603.1 207.5 600.3 212.2 C 595.5 219.8 591.2 227.8 585.0 234.3 C 593.0 234.4 601.1 234.4 609.1 234.4 C 605.3 244.7 602.3 255.2 598.9 265.6 C 607.7 265.5 617.2 265.1 625.0 270.0 C 636.2 276.5 642.4 290.5 639.6 303.1 C 637.3 315.5 626.6 325.8 614.2 327.5 C 604.9 328.6 595.5 328.0 586.2 328.1 C 583.8 348.3 582.0 368.7 582.6 389.1 C 582.2 402.4 582.6 415.8 584.6 429.1 C 586.6 442.7 589.2 456.2 591.3 469.8 C 595.9 490.0 599.4 510.5 605.3 530.5 C 614.8 532.6 624.4 534.1 634.0 535.9 C 641.1 537.4 645.0 544.6 647.0 551.0 C 650.2 562.6 653.5 574.9 661.9 584.0 C 671.6 594.2 685.0 600.1 694.7 610.3 C 705.2 620.5 711.1 635.5 708.9 650.1 C 708.2 656.5 705.2 662.4 702.6 668.2 C 711.7 677.4 719.6 687.9 730.0 695.9 C 737.1 701.3 741.8 710.0 741.5 719.0 C 742.0 733.5 731.0 747.4 716.7 750.0 L 313.5 750.0 C 300.9 747.3 290.4 736.0 289.1 723.0 C 287.6 713.1 292.0 702.9 299.2 696.2 C 303.1 692.7 308.2 690.8 311.9 686.9 C 317.0 681.5 322.0 676.0 327.0 670.6 C 319.8 660.2 316.8 647.4 316.1 634.9 C 317.5 626.0 321.2 617.1 327.6 610.6 C 340.7 598.2 357.5 590.1 369.0 576.0 C 378.4 565.0 376.9 548.5 387.1 538.1 C 396.5 529.7 410.6 535.2 420.8 528.8 C 422.6 527.7 424.2 526.2 424.5 524.1 C 439.7 470.5 450.8 415.0 448.1 359.0 C 448.0 348.8 449.0 338.5 446.8 328.4 C 435.3 327.2 423.3 329.9 412.1 326.2 C 400.5 322.5 392.1 311.1 391.3 299.1 C 390.3 287.2 396.9 275.2 407.4 269.6 C 415.0 265.2 424.0 265.4 432.5 265.7 C 429.0 255.2 426.2 244.6 422.1 234.3 C 430.2 234.5 438.3 234.4 446.4 234.5 C 441.0 228.1 435.9 221.3 432.2 213.7 C 428.8 206.7 423.7 200.8 420.1 193.9 C 408.2 172.2 404.0 146.3 408.9 122.1 C 414.2 93.8 431.5 68.3 455.3 52.3 Z" />
</svg>
